<?xml version="1.0" encoding="UTF-8" standalone="no"?>
<!DOCTYPE svg PUBLIC "-//W3C//DTD SVG 1.1//EN"
 "http://www.w3.org/Graphics/SVG/1.1/DTD/svg11.dtd">
<!-- Generated by graphviz version 2.38.0 (20140413.2041)
 -->
<!-- Title: G Pages: 1 -->
<svg width="135pt" height="204pt"
 viewBox="0.00 0.00 135.00 204.00" xmlns="http://www.w3.org/2000/svg" xmlns:xlink="http://www.w3.org/1999/xlink">
<g id="graph0" class="graph" transform="scale(1 1) rotate(0) translate(4 200)">
<title>G</title>
<polygon fill="white" stroke="none" points="-4,4 -4,-200 131,-200 131,4 -4,4"/>
<!-- I0 -->
<g id="node1" class="node"><title>I0</title>
<ellipse fill="none" stroke="black" cx="27" cy="-178" rx="27" ry="18"/>
<text text-anchor="middle" x="27" y="-173.8" font-family="Times,serif" font-size="14.00">I0</text>
</g>
<!-- H0 -->
<g id="node3" class="node"><title>H0</title>
<ellipse fill="none" stroke="black" cx="27" cy="-98" rx="27" ry="18"/>
<text text-anchor="middle" x="27" y="-93.8" font-family="Times,serif" font-size="14.00">H0</text>
</g>
<!-- I0&#45;&gt;H0 -->
<g id="edge1" class="edge"><title>I0&#45;&gt;H0</title>
<path fill="none" stroke="black" d="M17.8309,-160.771C15.0642,-155.026 12.393,-148.398 11,-142 9.69726,-136.017 10.6197,-129.75 12.5485,-123.908"/>
<polygon fill="black" stroke="black" points="15.8129,-125.176 16.5292,-114.605 9.37735,-122.422 15.8129,-125.176"/>
<text text-anchor="middle" x="18" y="-135.6" font-family="Times,serif" font-size="8.00">0.68</text>
</g>
<!-- H1 -->
<g id="node4" class="node"><title>H1</title>
<ellipse fill="none" stroke="black" cx="99" cy="-98" rx="27" ry="18"/>
<text text-anchor="middle" x="99" y="-93.8" font-family="Times,serif" font-size="14.00">H1</text>
</g>
<!-- I0&#45;&gt;H1 -->
<g id="edge2" class="edge"><title>I0&#45;&gt;H1</title>
<path fill="none" stroke="black" d="M32.7957,-160.298C36.2995,-151.8 41.3792,-141.675 48,-134 54.1669,-126.852 62.1127,-120.485 69.8885,-115.207"/>
<polygon fill="black" stroke="black" points="71.9382,-118.051 78.4914,-109.726 68.1769,-112.147 71.9382,-118.051"/>
<text text-anchor="middle" x="55" y="-135.6" font-family="Times,serif" font-size="8.00">0.58</text>
</g>
<!-- I1 -->
<g id="node2" class="node"><title>I1</title>
<ellipse fill="none" stroke="black" cx="100" cy="-178" rx="27" ry="18"/>
<text text-anchor="middle" x="100" y="-173.8" font-family="Times,serif" font-size="14.00">I1</text>
</g>
<!-- I1&#45;&gt;H0 -->
<g id="edge3" class="edge"><title>I1&#45;&gt;H0</title>
<path fill="none" stroke="black" d="M87.2067,-162.071C79.9382,-153.705 70.5985,-143.146 62,-134 57.852,-129.588 53.3357,-124.953 48.968,-120.552"/>
<polygon fill="black" stroke="black" points="51.3996,-118.034 41.8491,-113.447 46.4546,-122.989 51.3996,-118.034"/>
<text text-anchor="middle" x="73" y="-135.6" font-family="Times,serif" font-size="8.00">0.7</text>
</g>
<!-- I1&#45;&gt;H1 -->
<g id="edge4" class="edge"><title>I1&#45;&gt;H1</title>
<path fill="none" stroke="black" d="M99.7781,-159.689C99.6525,-149.894 99.4926,-137.422 99.3504,-126.335"/>
<polygon fill="black" stroke="black" points="102.849,-126.217 99.2213,-116.262 95.8499,-126.306 102.849,-126.217"/>
<text text-anchor="middle" x="106" y="-135.6" font-family="Times,serif" font-size="8.00">0.83</text>
</g>
<!-- O0 -->
<g id="node5" class="node"><title>O0</title>
<ellipse fill="none" stroke="black" cx="67" cy="-18" rx="27" ry="18"/>
<text text-anchor="middle" x="67" y="-13.8" font-family="Times,serif" font-size="14.00">O0</text>
</g>
<!-- H0&#45;&gt;O0 -->
<g id="edge5" class="edge"><title>H0&#45;&gt;O0</title>
<path fill="none" stroke="black" d="M35.288,-80.8383C40.7049,-70.2754 47.8917,-56.2613 54.0538,-44.2452"/>
<polygon fill="black" stroke="black" points="57.2737,-45.6363 58.7226,-35.1409 51.045,-42.442 57.2737,-45.6363"/>
<text text-anchor="middle" x="55" y="-55.6" font-family="Times,serif" font-size="8.00">0.37</text>
</g>
<!-- H1&#45;&gt;O0 -->
<g id="edge6" class="edge"><title>H1&#45;&gt;O0</title>
<path fill="none" stroke="black" d="M92.2136,-80.4582C87.971,-70.1169 82.4174,-56.5798 77.6024,-44.8434"/>
<polygon fill="black" stroke="black" points="80.8103,-43.4412 73.7766,-35.5179 74.3341,-46.0981 80.8103,-43.4412"/>
<text text-anchor="middle" x="90" y="-55.6" font-family="Times,serif" font-size="8.00">0.38</text>
</g>
</g>
</svg>
